<?xml version="1.0" standalone="no"?>
<!DOCTYPE svg PUBLIC "-//W3C//DTD SVG 20010904//EN"
 "http://www.w3.org/TR/2001/REC-SVG-20010904/DTD/svg10.dtd">
<svg version="1.0" xmlns="http://www.w3.org/2000/svg"
 width="1080.000000pt" height="1080.000000pt" viewBox="0 0 1080.000000 1080.000000"
 preserveAspectRatio="xMidYMid meet">
<metadata>
Created by potrace 1.14, written by Peter Selinger 2001-2017
</metadata>
<g transform="translate(0.000000,1080.000000) scale(0.100000,-0.100000)"
fill="#000000" stroke="none">
<path d="M2399 10796 c-2 -2 -78 -7 -169 -10 -91 -4 -187 -9 -215 -11 -246
-21 -358 -35 -470 -59 -5 -2 -36 -8 -67 -15 -32 -7 -61 -13 -65 -13 -25 -2
-221 -77 -298 -113 -81 -39 -293 -172 -329 -207 -7 -7 -33 -29 -57 -48 -82
-65 -235 -227 -312 -328 -184 -245 -294 -496 -341 -777 -21 -124 -28 -178 -41
-315 -3 -36 -8 -83 -10 -105 -17 -167 -20 -762 -20 -3395 0 -2608 4 -3227 20
-3390 2 -19 6 -69 9 -111 4 -42 8 -86 11 -97 2 -12 6 -47 10 -79 3 -32 8 -67
10 -78 3 -11 7 -31 9 -45 53 -310 166 -566 363 -818 196 -251 492 -483 758
-594 107 -45 297 -98 405 -113 24 -4 47 -8 50 -10 3 -2 37 -6 75 -10 39 -4 77
-9 85 -10 59 -11 230 -23 440 -32 229 -10 6038 -10 6285 0 210 8 278 12 375
22 36 4 76 8 90 10 163 17 356 57 488 101 59 20 113 41 120 46 6 6 12 8 12 5
0 -10 122 54 218 114 324 204 594 503 749 829 32 67 90 224 97 263 2 12 9 40
14 62 12 42 19 77 28 135 3 19 7 42 9 50 2 8 7 38 10 65 3 28 7 65 10 84 2 18
7 70 10 115 4 44 9 92 11 106 15 98 19 752 19 3385 0 2654 -3 3198 -20 3390
-2 28 -7 77 -10 110 -22 265 -83 537 -159 714 -184 428 -616 846 -1041 1009
-137 52 -322 96 -491 117 -83 10 -128 16 -154 20 -14 2 -74 7 -135 10 -60 4
-137 10 -170 12 -69 6 -6210 14 -6216 9z"/>
</g>
</svg>
